<mxfile host="Electron" modified="2023-08-01T10:27:53.298Z" agent="Mozilla/5.0 (Windows NT 10.0; Win64; x64) AppleWebKit/537.36 (KHTML, like Gecko) draw.io/21.6.5 Chrome/114.0.5735.243 Electron/25.3.1 Safari/537.36" etag="vo_UitSh9jtMMNOfbDO2" version="21.6.5" type="device">
  <diagram name="Page-1" id="zRds7ZYiZz9k-6JuOCyM">
    <mxGraphModel dx="1446" dy="710" grid="1" gridSize="10" guides="1" tooltips="1" connect="1" arrows="1" fold="1" page="1" pageScale="1" pageWidth="4681" pageHeight="3300" math="0" shadow="0">
      <root>
        <mxCell id="0" />
        <mxCell id="1" parent="0" />
        <mxCell id="XRiAmYlJoA9SLsXIZCaJ-3" value="&amp;nbsp;SportsHub:" style="html=1;dropTarget=0;whiteSpace=wrap;" parent="1" vertex="1">
          <mxGeometry y="600" width="180" height="90" as="geometry" />
        </mxCell>
        <mxCell id="XRiAmYlJoA9SLsXIZCaJ-4" value="" style="shape=module;jettyWidth=8;jettyHeight=4;" parent="XRiAmYlJoA9SLsXIZCaJ-3" vertex="1">
          <mxGeometry x="1" width="20" height="20" relative="1" as="geometry">
            <mxPoint x="-27" y="7" as="offset" />
          </mxGeometry>
        </mxCell>
        <mxCell id="XRiAmYlJoA9SLsXIZCaJ-5" value="SPORTSUSER" style="shape=module;align=left;spacingLeft=20;align=center;verticalAlign=top;whiteSpace=wrap;html=1;" parent="1" vertex="1">
          <mxGeometry x="390" y="160" width="140" height="60" as="geometry" />
        </mxCell>
        <mxCell id="XRiAmYlJoA9SLsXIZCaJ-6" value="Registeredfitness trainer" style="shape=module;align=left;spacingLeft=20;align=center;verticalAlign=top;whiteSpace=wrap;html=1;" parent="1" vertex="1">
          <mxGeometry x="390" y="370" width="180" height="70" as="geometry" />
        </mxCell>
        <mxCell id="XRiAmYlJoA9SLsXIZCaJ-7" value="fitness user" style="shape=module;align=left;spacingLeft=20;align=center;verticalAlign=top;whiteSpace=wrap;html=1;" parent="1" vertex="1">
          <mxGeometry x="410" y="810" width="160" height="50" as="geometry" />
        </mxCell>
        <mxCell id="XRiAmYlJoA9SLsXIZCaJ-11" value="BUY MEMBERSHIP" style="shape=module;align=left;spacingLeft=20;align=center;verticalAlign=top;whiteSpace=wrap;html=1;" parent="1" vertex="1">
          <mxGeometry x="840" y="180" width="100" height="50" as="geometry" />
        </mxCell>
        <mxCell id="XRiAmYlJoA9SLsXIZCaJ-12" value="DISPLAY&lt;br&gt;ALLOCATED USERS" style="shape=module;align=left;spacingLeft=20;align=center;verticalAlign=top;whiteSpace=wrap;html=1;" parent="1" vertex="1">
          <mxGeometry x="840" y="270" width="100" height="50" as="geometry" />
        </mxCell>
        <mxCell id="XRiAmYlJoA9SLsXIZCaJ-13" value="CUSTOMIZE plan" style="shape=module;align=left;spacingLeft=20;align=center;verticalAlign=top;whiteSpace=wrap;html=1;" parent="1" vertex="1">
          <mxGeometry x="840" y="370" width="100" height="50" as="geometry" />
        </mxCell>
        <mxCell id="XRiAmYlJoA9SLsXIZCaJ-18" value="Database" style="shape=module;align=left;spacingLeft=20;align=center;verticalAlign=top;whiteSpace=wrap;html=1;" parent="1" vertex="1">
          <mxGeometry x="1440" y="600" width="100" height="50" as="geometry" />
        </mxCell>
        <mxCell id="XRiAmYlJoA9SLsXIZCaJ-21" value="BOOK SLOTS" style="shape=module;align=left;spacingLeft=20;align=center;verticalAlign=top;whiteSpace=wrap;html=1;" parent="1" vertex="1">
          <mxGeometry x="840" y="80" width="100" height="50" as="geometry" />
        </mxCell>
        <mxCell id="XRiAmYlJoA9SLsXIZCaJ-26" value="MONITOR FACILITY" style="shape=module;align=left;spacingLeft=20;align=center;verticalAlign=top;whiteSpace=wrap;html=1;" parent="1" vertex="1">
          <mxGeometry x="840" y="490" width="100" height="50" as="geometry" />
        </mxCell>
        <mxCell id="XRiAmYlJoA9SLsXIZCaJ-28" value="MANAGE WEBSITE" style="shape=module;align=left;spacingLeft=20;align=center;verticalAlign=top;whiteSpace=wrap;html=1;" parent="1" vertex="1">
          <mxGeometry x="860" y="1100" width="100" height="50" as="geometry" />
        </mxCell>
        <mxCell id="XRiAmYlJoA9SLsXIZCaJ-30" value="Admin" style="shape=module;align=left;spacingLeft=20;align=center;verticalAlign=top;whiteSpace=wrap;html=1;" parent="1" vertex="1">
          <mxGeometry x="410" y="1050" width="100" height="50" as="geometry" />
        </mxCell>
        <mxCell id="W-olzOlRu0JeUc6V83ey-1" value="" style="ellipse;whiteSpace=wrap;html=1;aspect=fixed;" parent="1" vertex="1">
          <mxGeometry x="210" y="620" width="50" height="50" as="geometry" />
        </mxCell>
        <mxCell id="W-olzOlRu0JeUc6V83ey-9" value="Use" style="endArrow=open;endSize=12;dashed=1;html=1;rounded=0;entryX=0;entryY=0;entryDx=0;entryDy=35;entryPerimeter=0;exitX=1;exitY=0.5;exitDx=0;exitDy=0;" parent="1" source="XRiAmYlJoA9SLsXIZCaJ-30" target="XRiAmYlJoA9SLsXIZCaJ-28" edge="1">
          <mxGeometry width="160" relative="1" as="geometry">
            <mxPoint x="520" y="1125" as="sourcePoint" />
            <mxPoint x="780" y="1160" as="targetPoint" />
            <Array as="points">
              <mxPoint x="600" y="1150" />
              <mxPoint x="800" y="1150" />
            </Array>
          </mxGeometry>
        </mxCell>
        <mxCell id="W-olzOlRu0JeUc6V83ey-12" value="Registeredsports trainer" style="shape=module;align=left;spacingLeft=20;align=center;verticalAlign=top;whiteSpace=wrap;html=1;" parent="1" vertex="1">
          <mxGeometry x="390" y="590" width="180" height="70" as="geometry" />
        </mxCell>
        <mxCell id="W-olzOlRu0JeUc6V83ey-15" value="Use" style="endArrow=open;endSize=12;dashed=1;html=1;rounded=0;exitX=0.5;exitY=1;exitDx=0;exitDy=0;entryX=0;entryY=0;entryDx=0;entryDy=35;entryPerimeter=0;" parent="1" source="W-olzOlRu0JeUc6V83ey-1" target="XRiAmYlJoA9SLsXIZCaJ-7" edge="1">
          <mxGeometry width="160" relative="1" as="geometry">
            <mxPoint x="310" y="440" as="sourcePoint" />
            <mxPoint x="470" y="440" as="targetPoint" />
            <Array as="points">
              <mxPoint x="235" y="840" />
            </Array>
          </mxGeometry>
        </mxCell>
        <mxCell id="W-olzOlRu0JeUc6V83ey-16" value="" style="endArrow=open;endSize=12;dashed=1;html=1;rounded=0;exitX=0.5;exitY=1;exitDx=0;exitDy=0;entryX=0;entryY=0;entryDx=0;entryDy=35;entryPerimeter=0;" parent="1" source="W-olzOlRu0JeUc6V83ey-1" target="XRiAmYlJoA9SLsXIZCaJ-30" edge="1">
          <mxGeometry width="160" relative="1" as="geometry">
            <mxPoint x="310" y="440" as="sourcePoint" />
            <mxPoint x="470" y="440" as="targetPoint" />
            <Array as="points">
              <mxPoint x="235" y="1080" />
            </Array>
          </mxGeometry>
        </mxCell>
        <mxCell id="W-olzOlRu0JeUc6V83ey-20" value="" style="endArrow=block;dashed=1;endFill=0;endSize=12;html=1;rounded=0;exitX=0.5;exitY=0;exitDx=0;exitDy=0;entryX=0;entryY=0;entryDx=0;entryDy=35;entryPerimeter=0;" parent="1" source="W-olzOlRu0JeUc6V83ey-1" target="XRiAmYlJoA9SLsXIZCaJ-5" edge="1">
          <mxGeometry width="160" relative="1" as="geometry">
            <mxPoint x="310" y="440" as="sourcePoint" />
            <mxPoint x="470" y="440" as="targetPoint" />
            <Array as="points">
              <mxPoint x="235" y="210" />
            </Array>
          </mxGeometry>
        </mxCell>
        <mxCell id="W-olzOlRu0JeUc6V83ey-21" value="" style="endArrow=block;dashed=1;endFill=0;endSize=12;html=1;rounded=0;exitX=0.5;exitY=0;exitDx=0;exitDy=0;entryX=0;entryY=0;entryDx=0;entryDy=35;entryPerimeter=0;" parent="1" source="W-olzOlRu0JeUc6V83ey-1" target="XRiAmYlJoA9SLsXIZCaJ-6" edge="1">
          <mxGeometry width="160" relative="1" as="geometry">
            <mxPoint x="310" y="440" as="sourcePoint" />
            <mxPoint x="470" y="440" as="targetPoint" />
            <Array as="points">
              <mxPoint x="235" y="405" />
            </Array>
          </mxGeometry>
        </mxCell>
        <mxCell id="W-olzOlRu0JeUc6V83ey-22" value="" style="endArrow=block;dashed=1;endFill=0;endSize=12;html=1;rounded=0;exitX=1;exitY=0.5;exitDx=0;exitDy=0;entryX=0;entryY=0.75;entryDx=10;entryDy=0;entryPerimeter=0;" parent="1" source="W-olzOlRu0JeUc6V83ey-1" target="W-olzOlRu0JeUc6V83ey-12" edge="1">
          <mxGeometry width="160" relative="1" as="geometry">
            <mxPoint x="310" y="440" as="sourcePoint" />
            <mxPoint x="470" y="440" as="targetPoint" />
            <Array as="points" />
          </mxGeometry>
        </mxCell>
        <mxCell id="W-olzOlRu0JeUc6V83ey-23" value="monitor members" style="shape=module;align=left;spacingLeft=20;align=center;verticalAlign=top;whiteSpace=wrap;html=1;" parent="1" vertex="1">
          <mxGeometry x="840" y="690" width="100" height="50" as="geometry" />
        </mxCell>
        <mxCell id="W-olzOlRu0JeUc6V83ey-24" value="Arrange slots" style="shape=module;align=left;spacingLeft=20;align=center;verticalAlign=top;whiteSpace=wrap;html=1;" parent="1" vertex="1">
          <mxGeometry x="840" y="580" width="100" height="50" as="geometry" />
        </mxCell>
        <mxCell id="W-olzOlRu0JeUc6V83ey-25" value="VERIFY USERS AND TRAINERS" style="shape=module;align=left;spacingLeft=20;align=center;verticalAlign=top;whiteSpace=wrap;html=1;" parent="1" vertex="1">
          <mxGeometry x="850" y="1010" width="100" height="50" as="geometry" />
        </mxCell>
        <mxCell id="W-olzOlRu0JeUc6V83ey-26" value="" style="endArrow=block;dashed=1;endFill=0;endSize=12;html=1;rounded=0;entryX=0;entryY=0;entryDx=0;entryDy=35;entryPerimeter=0;exitX=1;exitY=0.5;exitDx=0;exitDy=0;" parent="1" source="XRiAmYlJoA9SLsXIZCaJ-6" target="XRiAmYlJoA9SLsXIZCaJ-13" edge="1">
          <mxGeometry width="160" relative="1" as="geometry">
            <mxPoint x="590" y="404" as="sourcePoint" />
            <mxPoint x="750" y="404" as="targetPoint" />
          </mxGeometry>
        </mxCell>
        <mxCell id="W-olzOlRu0JeUc6V83ey-27" value="" style="endArrow=block;dashed=1;endFill=0;endSize=12;html=1;rounded=0;entryX=0;entryY=0;entryDx=0;entryDy=15;entryPerimeter=0;" parent="1" target="XRiAmYlJoA9SLsXIZCaJ-12" edge="1">
          <mxGeometry width="160" relative="1" as="geometry">
            <mxPoint x="570" y="410" as="sourcePoint" />
            <mxPoint x="850" y="415" as="targetPoint" />
            <Array as="points">
              <mxPoint x="670" y="280" />
            </Array>
          </mxGeometry>
        </mxCell>
        <mxCell id="W-olzOlRu0JeUc6V83ey-28" value="" style="endArrow=block;dashed=1;endFill=0;endSize=12;html=1;rounded=0;entryX=0;entryY=0;entryDx=0;entryDy=15;entryPerimeter=0;exitX=1;exitY=0.5;exitDx=0;exitDy=0;" parent="1" source="XRiAmYlJoA9SLsXIZCaJ-5" target="XRiAmYlJoA9SLsXIZCaJ-21" edge="1">
          <mxGeometry width="160" relative="1" as="geometry">
            <mxPoint x="530" y="189" as="sourcePoint" />
            <mxPoint x="800" y="189" as="targetPoint" />
            <Array as="points">
              <mxPoint x="760" y="190" />
            </Array>
          </mxGeometry>
        </mxCell>
        <mxCell id="W-olzOlRu0JeUc6V83ey-30" value="" style="endArrow=block;dashed=1;endFill=0;endSize=12;html=1;rounded=0;entryX=0;entryY=0;entryDx=0;entryDy=35;entryPerimeter=0;exitX=1;exitY=0.5;exitDx=0;exitDy=0;" parent="1" source="XRiAmYlJoA9SLsXIZCaJ-6" target="XRiAmYlJoA9SLsXIZCaJ-26" edge="1">
          <mxGeometry width="160" relative="1" as="geometry">
            <mxPoint x="610" y="445" as="sourcePoint" />
            <mxPoint x="880" y="445" as="targetPoint" />
            <Array as="points">
              <mxPoint x="670" y="530" />
            </Array>
          </mxGeometry>
        </mxCell>
        <mxCell id="W-olzOlRu0JeUc6V83ey-31" value="" style="endArrow=block;dashed=1;endFill=0;endSize=12;html=1;rounded=0;entryX=0.1;entryY=0.55;entryDx=0;entryDy=0;entryPerimeter=0;exitX=1;exitY=0.25;exitDx=0;exitDy=0;" parent="1" source="W-olzOlRu0JeUc6V83ey-12" target="W-olzOlRu0JeUc6V83ey-24" edge="1">
          <mxGeometry width="160" relative="1" as="geometry">
            <mxPoint x="620" y="455" as="sourcePoint" />
            <mxPoint x="890" y="455" as="targetPoint" />
            <Array as="points" />
          </mxGeometry>
        </mxCell>
        <mxCell id="W-olzOlRu0JeUc6V83ey-32" value="" style="endArrow=block;dashed=1;endFill=0;endSize=12;html=1;rounded=0;exitX=1;exitY=0.25;exitDx=0;exitDy=0;" parent="1" source="W-olzOlRu0JeUc6V83ey-12" edge="1">
          <mxGeometry width="160" relative="1" as="geometry">
            <mxPoint x="630" y="465" as="sourcePoint" />
            <mxPoint x="840" y="705" as="targetPoint" />
            <Array as="points">
              <mxPoint x="660" y="705" />
            </Array>
          </mxGeometry>
        </mxCell>
        <mxCell id="W-olzOlRu0JeUc6V83ey-33" value="" style="endArrow=block;dashed=1;endFill=0;endSize=12;html=1;rounded=0;entryX=0.173;entryY=0.453;entryDx=0;entryDy=0;entryPerimeter=0;exitX=1;exitY=0.75;exitDx=0;exitDy=0;" parent="1" source="XRiAmYlJoA9SLsXIZCaJ-5" target="XRiAmYlJoA9SLsXIZCaJ-11" edge="1">
          <mxGeometry width="160" relative="1" as="geometry">
            <mxPoint x="530" y="190" as="sourcePoint" />
            <mxPoint x="810" y="195" as="targetPoint" />
            <Array as="points" />
          </mxGeometry>
        </mxCell>
        <mxCell id="W-olzOlRu0JeUc6V83ey-36" value="get customized polan and trainer" style="shape=module;align=left;spacingLeft=20;align=center;verticalAlign=top;whiteSpace=wrap;html=1;" parent="1" vertex="1">
          <mxGeometry x="850" y="910" width="120" height="50" as="geometry" />
        </mxCell>
        <mxCell id="W-olzOlRu0JeUc6V83ey-37" value="BUY fitness membership" style="shape=module;align=left;spacingLeft=20;align=center;verticalAlign=top;whiteSpace=wrap;html=1;" parent="1" vertex="1">
          <mxGeometry x="850" y="800" width="100" height="50" as="geometry" />
        </mxCell>
        <mxCell id="W-olzOlRu0JeUc6V83ey-38" value="" style="endArrow=block;dashed=1;endFill=0;endSize=12;html=1;rounded=0;entryX=0;entryY=0;entryDx=0;entryDy=35;entryPerimeter=0;" parent="1" target="W-olzOlRu0JeUc6V83ey-37" edge="1">
          <mxGeometry width="160" relative="1" as="geometry">
            <mxPoint x="570" y="834" as="sourcePoint" />
            <mxPoint x="730" y="834" as="targetPoint" />
          </mxGeometry>
        </mxCell>
        <mxCell id="W-olzOlRu0JeUc6V83ey-40" value="" style="endArrow=block;dashed=1;endFill=0;endSize=12;html=1;rounded=0;entryX=0;entryY=0;entryDx=0;entryDy=35;entryPerimeter=0;exitX=1;exitY=0.5;exitDx=0;exitDy=0;" parent="1" source="XRiAmYlJoA9SLsXIZCaJ-7" target="W-olzOlRu0JeUc6V83ey-36" edge="1">
          <mxGeometry width="160" relative="1" as="geometry">
            <mxPoint x="590" y="840" as="sourcePoint" />
            <mxPoint x="860" y="845" as="targetPoint" />
            <Array as="points">
              <mxPoint x="650" y="945" />
            </Array>
          </mxGeometry>
        </mxCell>
        <mxCell id="W-olzOlRu0JeUc6V83ey-41" value="" style="endArrow=block;dashed=1;endFill=0;endSize=12;html=1;rounded=0;entryX=0;entryY=0;entryDx=0;entryDy=35;entryPerimeter=0;exitX=1;exitY=0.5;exitDx=0;exitDy=0;" parent="1" source="XRiAmYlJoA9SLsXIZCaJ-30" target="W-olzOlRu0JeUc6V83ey-25" edge="1">
          <mxGeometry width="160" relative="1" as="geometry">
            <mxPoint x="580" y="845" as="sourcePoint" />
            <mxPoint x="860" y="955" as="targetPoint" />
            <Array as="points">
              <mxPoint x="650" y="1035" />
            </Array>
          </mxGeometry>
        </mxCell>
        <mxCell id="W-olzOlRu0JeUc6V83ey-43" value="" style="endArrow=none;dashed=1;html=1;dashPattern=1 3;strokeWidth=2;rounded=0;" parent="1" edge="1">
          <mxGeometry width="50" height="50" relative="1" as="geometry">
            <mxPoint x="1210" y="1125" as="sourcePoint" />
            <mxPoint x="1210" y="90" as="targetPoint" />
            <Array as="points">
              <mxPoint x="1210" y="645" />
            </Array>
          </mxGeometry>
        </mxCell>
        <mxCell id="W-olzOlRu0JeUc6V83ey-44" value="" style="endArrow=none;dashed=1;html=1;dashPattern=1 3;strokeWidth=2;rounded=0;entryX=1;entryY=0.5;entryDx=0;entryDy=0;" parent="1" target="XRiAmYlJoA9SLsXIZCaJ-21" edge="1">
          <mxGeometry width="50" height="50" relative="1" as="geometry">
            <mxPoint x="1220" y="105" as="sourcePoint" />
            <mxPoint x="820" y="420" as="targetPoint" />
          </mxGeometry>
        </mxCell>
        <mxCell id="W-olzOlRu0JeUc6V83ey-47" value="" style="endArrow=none;dashed=1;html=1;dashPattern=1 3;strokeWidth=2;rounded=0;entryX=1;entryY=0.5;entryDx=0;entryDy=0;" parent="1" edge="1">
          <mxGeometry width="50" height="50" relative="1" as="geometry">
            <mxPoint x="1210" y="620" as="sourcePoint" />
            <mxPoint x="940" y="620" as="targetPoint" />
          </mxGeometry>
        </mxCell>
        <mxCell id="W-olzOlRu0JeUc6V83ey-48" value="" style="endArrow=none;dashed=1;html=1;dashPattern=1 3;strokeWidth=2;rounded=0;entryX=1;entryY=0.5;entryDx=0;entryDy=0;" parent="1" edge="1">
          <mxGeometry width="50" height="50" relative="1" as="geometry">
            <mxPoint x="1210" y="523" as="sourcePoint" />
            <mxPoint x="940" y="522.5" as="targetPoint" />
          </mxGeometry>
        </mxCell>
        <mxCell id="W-olzOlRu0JeUc6V83ey-49" value="" style="endArrow=none;dashed=1;html=1;dashPattern=1 3;strokeWidth=2;rounded=0;entryX=1;entryY=0.5;entryDx=0;entryDy=0;" parent="1" edge="1">
          <mxGeometry width="50" height="50" relative="1" as="geometry">
            <mxPoint x="1210" y="403" as="sourcePoint" />
            <mxPoint x="940" y="402.5" as="targetPoint" />
          </mxGeometry>
        </mxCell>
        <mxCell id="W-olzOlRu0JeUc6V83ey-51" value="" style="endArrow=none;dashed=1;html=1;dashPattern=1 3;strokeWidth=2;rounded=0;entryX=1;entryY=0.5;entryDx=0;entryDy=0;" parent="1" edge="1">
          <mxGeometry width="50" height="50" relative="1" as="geometry">
            <mxPoint x="1210" y="300" as="sourcePoint" />
            <mxPoint x="940" y="295" as="targetPoint" />
          </mxGeometry>
        </mxCell>
        <mxCell id="W-olzOlRu0JeUc6V83ey-52" value="" style="endArrow=none;dashed=1;html=1;dashPattern=1 3;strokeWidth=2;rounded=0;entryX=1;entryY=0.5;entryDx=0;entryDy=0;" parent="1" edge="1">
          <mxGeometry width="50" height="50" relative="1" as="geometry">
            <mxPoint x="1200" y="213" as="sourcePoint" />
            <mxPoint x="950" y="212.5" as="targetPoint" />
          </mxGeometry>
        </mxCell>
        <mxCell id="W-olzOlRu0JeUc6V83ey-53" value="" style="endArrow=none;dashed=1;html=1;dashPattern=1 3;strokeWidth=2;rounded=0;entryX=1;entryY=0.5;entryDx=0;entryDy=0;" parent="1" edge="1">
          <mxGeometry width="50" height="50" relative="1" as="geometry">
            <mxPoint x="1210" y="1035" as="sourcePoint" />
            <mxPoint x="950" y="1035" as="targetPoint" />
            <Array as="points">
              <mxPoint x="1070" y="1030" />
            </Array>
          </mxGeometry>
        </mxCell>
        <mxCell id="W-olzOlRu0JeUc6V83ey-54" value="" style="endArrow=none;dashed=1;html=1;dashPattern=1 3;strokeWidth=2;rounded=0;entryX=1;entryY=0.5;entryDx=0;entryDy=0;" parent="1" edge="1">
          <mxGeometry width="50" height="50" relative="1" as="geometry">
            <mxPoint x="1210" y="938" as="sourcePoint" />
            <mxPoint x="960" y="942.5" as="targetPoint" />
            <Array as="points">
              <mxPoint x="1080" y="937.5" />
            </Array>
          </mxGeometry>
        </mxCell>
        <mxCell id="W-olzOlRu0JeUc6V83ey-55" value="" style="endArrow=none;dashed=1;html=1;dashPattern=1 3;strokeWidth=2;rounded=0;entryX=1;entryY=0.5;entryDx=0;entryDy=0;" parent="1" edge="1">
          <mxGeometry width="50" height="50" relative="1" as="geometry">
            <mxPoint x="1210" y="825" as="sourcePoint" />
            <mxPoint x="940" y="825" as="targetPoint" />
            <Array as="points">
              <mxPoint x="1060" y="820" />
            </Array>
          </mxGeometry>
        </mxCell>
        <mxCell id="W-olzOlRu0JeUc6V83ey-57" value="" style="endArrow=none;dashed=1;html=1;dashPattern=1 3;strokeWidth=2;rounded=0;entryX=1;entryY=0.5;entryDx=0;entryDy=0;" parent="1" edge="1">
          <mxGeometry width="50" height="50" relative="1" as="geometry">
            <mxPoint x="1210" y="710" as="sourcePoint" />
            <mxPoint x="940" y="715" as="targetPoint" />
            <Array as="points">
              <mxPoint x="1060" y="710" />
            </Array>
          </mxGeometry>
        </mxCell>
        <mxCell id="W-olzOlRu0JeUc6V83ey-58" value="" style="endArrow=block;dashed=1;endFill=0;endSize=12;html=1;rounded=0;exitX=0.173;exitY=0.587;exitDx=0;exitDy=0;exitPerimeter=0;" parent="1" source="XRiAmYlJoA9SLsXIZCaJ-18" edge="1">
          <mxGeometry width="160" relative="1" as="geometry">
            <mxPoint x="720" y="440" as="sourcePoint" />
            <mxPoint x="1457" y="625" as="targetPoint" />
            <Array as="points">
              <mxPoint x="1210" y="629" />
            </Array>
          </mxGeometry>
        </mxCell>
        <mxCell id="W-olzOlRu0JeUc6V83ey-61" value="" style="endArrow=none;dashed=1;html=1;dashPattern=1 3;strokeWidth=2;rounded=0;entryX=1;entryY=0.5;entryDx=0;entryDy=0;" parent="1" target="XRiAmYlJoA9SLsXIZCaJ-28" edge="1">
          <mxGeometry width="50" height="50" relative="1" as="geometry">
            <mxPoint x="1210" y="1128" as="sourcePoint" />
            <mxPoint x="950" y="1132.5" as="targetPoint" />
            <Array as="points">
              <mxPoint x="1070" y="1127.5" />
            </Array>
          </mxGeometry>
        </mxCell>
        <mxCell id="W-olzOlRu0JeUc6V83ey-62" value="" style="line;strokeWidth=1;fillColor=none;align=left;verticalAlign=middle;spacingTop=-1;spacingLeft=3;spacingRight=3;rotatable=0;labelPosition=right;points=[];portConstraint=eastwest;strokeColor=inherit;" parent="1" vertex="1">
          <mxGeometry x="190" y="565" width="20" height="160" as="geometry" />
        </mxCell>
      </root>
    </mxGraphModel>
  </diagram>
</mxfile>
